<?xml version="1.0" encoding="UTF-8" standalone="no"?>
<!-- Created with Inkscape (http://www.inkscape.org/) -->

<svg
   width="35.113636mm"
   height="48.011719mm"
   viewBox="0 0 35.113636 48.011719"
   version="1.1"
   id="svg1"
   xml:space="preserve"
   sodipodi:docname="puerta-2.svg"
   inkscape:version="1.4.2 (f4327f4, 2025-05-13)"
   xmlns:inkscape="http://www.inkscape.org/namespaces/inkscape"
   xmlns:sodipodi="http://sodipodi.sourceforge.net/DTD/sodipodi-0.dtd"
   xmlns="http://www.w3.org/2000/svg"
   xmlns:svg="http://www.w3.org/2000/svg"><sodipodi:namedview
     id="namedview1"
     pagecolor="#ffffff"
     bordercolor="#000000"
     borderopacity="0.25"
     inkscape:showpageshadow="2"
     inkscape:pageopacity="0.0"
     inkscape:pagecheckerboard="0"
     inkscape:deskcolor="#d1d1d1"
     inkscape:document-units="mm"
     inkscape:zoom="3.7804139"
     inkscape:cx="66.262587"
     inkscape:cy="90.730807"
     inkscape:window-width="1500"
     inkscape:window-height="930"
     inkscape:window-x="-6"
     inkscape:window-y="-6"
     inkscape:window-maximized="1"
     inkscape:current-layer="svg1" /><defs
     id="defs1" /><g
     id="layer1"
     transform="translate(-207.30699,-290.00396)"
     style="fill:#d8b862;fill-opacity:1"><g
       id="g179"
       transform="translate(-143.6841,5.6126601)"
       style="fill:#d8b862;fill-opacity:1"><path
         id="path129"
         style="opacity:1;fill:#d8b862;fill-opacity:1;stroke-width:3.56695;stroke-linecap:square;stroke-linejoin:round;paint-order:stroke fill markers"
         d="m 350.99122,332.40302 v -1 h 35.11351 v 1 z" /><path
         id="path130"
         style="opacity:1;fill:#d8b862;fill-opacity:1;stroke-width:3.4901;stroke-linecap:square;stroke-linejoin:round;paint-order:stroke fill markers"
         d="m 350.99122,298.78622 h 1 v 33.6168 h -1 z" /><path
         id="path131"
         style="opacity:1;fill:#d8b862;fill-opacity:1;stroke-width:3.4901;stroke-linecap:square;stroke-linejoin:round;paint-order:stroke fill markers"
         d="m 385.10473,298.78622 h 1 v 33.6168 h -1 z" /><path
         id="path132"
         style="opacity:1;fill:#d8b862;fill-opacity:1;stroke-width:3.37489;stroke-linecap:square;stroke-linejoin:round;paint-order:stroke fill markers"
         d="m 356.2297,300.96903 h 1 v 31.43399 h -1 z" /><path
         id="path133"
         style="opacity:1;fill:#d8b862;fill-opacity:1;stroke-width:3.37489;stroke-linecap:square;stroke-linejoin:round;paint-order:stroke fill markers"
         d="m 380.86625,300.96903 h -1 v 31.43399 h 1 z" /><path
         id="path134"
         style="opacity:1;fill:#d8b862;fill-opacity:1;stroke-width:3.68712;stroke-linecap:square;stroke-linejoin:round;paint-order:stroke fill markers"
         d="m 368.04797,294.88362 h 1 v 37.5194 h -1 z" /><path
         id="path135"
         style="opacity:1;fill:#d8b862;fill-opacity:1;stroke-width:3.29067;stroke-linecap:square;stroke-linejoin:round;paint-order:stroke fill markers"
         d="m 359.31672,302.5183 h 1 v 29.88472 h -1 z" /><path
         id="path136"
         style="opacity:1;fill:#d8b862;fill-opacity:1;stroke-width:3.29067;stroke-linecap:square;stroke-linejoin:round;paint-order:stroke fill markers"
         d="m 377.77923,302.5183 h -1 v 29.88472 h 1 z" /><path
         id="path137"
         style="opacity:1;fill:#d8b862;fill-opacity:1;stroke-width:2.98779;stroke-linecap:square;stroke-linejoin:round;paint-order:stroke fill markers"
         d="m 356.2297,328.96344 v -1 h 24.63655 v 1 z" /><path
         d="m 368.54715,295.06095 -0.4439,-0.18087 0.35088,-0.86661 -0.30644,0.12454 c -1.38316,0.56039 -3.52889,1.47857 -5.36711,2.7652 -1.83823,1.28663 -3.43288,2.97992 -3.45922,5.12527 l -0.006,0.50178 1.00562,0.0139 0.006,-0.50384 c 0.0202,-1.64202 1.30924,-3.10902 3.02927,-4.31292 1.72003,-1.2039 3.80731,-2.10625 5.16971,-2.65823 z"
         style="baseline-shift:baseline;display:inline;overflow:visible;opacity:1;vector-effect:none;fill:#d8b862;fill-opacity:1;stroke-linecap:square;paint-order:stroke fill markers;enable-background:accumulate;stop-color:#000000;stop-opacity:1"
         id="path138" /><path
         d="m 368.64068,294.01347 0.35089,0.86661 -0.44442,0.18087 0.0212,0.008 c 1.3624,0.55198 3.44968,1.45433 5.16971,2.65823 1.72003,1.2039 3.00907,2.6709 3.02927,4.31292 l 0.006,0.50384 1.00562,-0.0139 -0.006,-0.50178 c -0.0263,-2.14535 -1.62099,-3.83864 -3.45922,-5.12527 -1.83822,-1.28663 -3.98396,-2.20481 -5.36712,-2.7652 z"
         style="baseline-shift:baseline;display:inline;overflow:visible;opacity:1;vector-effect:none;fill:#d8b862;fill-opacity:1;stroke-linecap:square;paint-order:stroke fill markers;enable-background:accumulate;stop-color:#000000;stop-opacity:1"
         id="path139" /><path
         d="m 368.54715,293.97574 -0.093,0.0377 -0.35088,0.86661 0.4439,0.18087 0.44442,-0.18087 -0.35089,-0.86661 z"
         style="baseline-shift:baseline;display:inline;overflow:visible;opacity:1;vector-effect:none;fill:#d8b862;fill-opacity:1;stroke-linecap:square;paint-order:stroke fill markers;enable-background:accumulate;stop-color:#000000;stop-opacity:1"
         id="path140" /><path
         d="m 368.7182,290.08761 0.34726,0.79633 -0.46095,0.20102 c -0.0189,0.008 -0.0375,0.0165 -0.0563,0.0248 4.80047,2.1074 7.63439,4.22018 9.26352,5.9247 1.63553,1.71121 2.04204,3.06761 2.05672,3.4432 l -0.002,0.49144 h 0.99993 l -0.0196,-0.50229 c -0.0329,-0.84217 -0.55682,-2.2953 -2.30839,-4.12791 -1.75156,-1.83262 -4.7165,-4.01745 -9.64437,-6.17379 z"
         style="baseline-shift:baseline;display:inline;overflow:visible;opacity:1;vector-effect:none;fill:#d8b862;fill-opacity:1;stroke-linecap:square;paint-order:stroke fill markers;enable-background:accumulate;stop-color:#000000;stop-opacity:1"
         id="path143" /><path
         d="m 368.54818,291.10977 c -0.0188,-0.008 -0.0379,-0.0165 -0.0568,-0.0248 l -0.46095,-0.20102 0.34778,-0.79633 -0.1757,0.0775 c -4.92787,2.15634 -7.89333,4.34117 -9.64489,6.17379 -1.75157,1.83261 -2.27549,3.28574 -2.30839,4.12791 l -0.0196,0.50229 h 0.99994 l -0.002,-0.49144 c 0.0147,-0.37559 0.42068,-1.73199 2.05621,-3.4432 1.62913,-1.70452 4.46357,-3.8173 9.26403,-5.9247 z"
         style="baseline-shift:baseline;display:inline;overflow:visible;opacity:1;vector-effect:none;fill:#d8b862;fill-opacity:1;stroke-linecap:square;paint-order:stroke fill markers;enable-background:accumulate;stop-color:#000000;stop-opacity:1"
         id="path144" /><path
         d="m 368.54818,290.01268 -0.17001,0.0749 -0.34778,0.79633 0.46095,0.20102 c 0.0189,0.008 0.038,0.0165 0.0568,0.0248 0.0188,-0.008 0.0374,-0.0165 0.0563,-0.0248 l 0.46095,-0.20102 -0.34726,-0.79633 z"
         style="baseline-shift:baseline;display:inline;overflow:visible;opacity:1;vector-effect:none;fill:#d8b862;fill-opacity:1;stroke-linecap:square;paint-order:stroke fill markers;enable-background:accumulate;stop-color:#000000;stop-opacity:1"
         id="path145" /><path
         d="m 368.58022,284.40837 0.46199,0.85834 -0.44338,0.23823 c -0.0169,0.009 -0.0337,0.0183 -0.0507,0.0274 6.28559,3.37499 10.45599,6.06264 13.03125,8.23619 2.58217,2.17939 3.50975,3.80796 3.52537,5.01778 v 0.4961 h 0.99993 v -0.4961 c -0.0218,-1.68643 -1.19852,-3.52471 -3.87676,-5.78518 -2.67823,-2.26046 -6.90961,-4.97772 -13.25604,-8.38295 z"
         style="baseline-shift:baseline;display:inline;overflow:visible;opacity:1;vector-effect:none;fill:#d8b862;fill-opacity:1;stroke-linecap:square;paint-order:stroke fill markers;enable-background:accumulate;stop-color:#000000;stop-opacity:1"
         id="path146" /><path
         d="m 368.54818,285.53233 c -0.0169,-0.009 -0.0342,-0.0183 -0.0512,-0.0274 l -0.44286,-0.23823 0.4625,-0.85834 -0.39274,0.2098 c -6.34643,3.40523 -10.57781,6.12249 -13.25604,8.38295 -2.67824,2.26047 -3.85496,4.09875 -3.87676,5.78518 v 0.4961 h 0.99993 v -0.4961 c 0.0156,-1.20982 0.9432,-2.83839 3.52537,-5.01778 2.57526,-2.17355 6.74617,-4.8612 13.03176,-8.23619 z"
         style="baseline-shift:baseline;display:inline;overflow:visible;opacity:1;vector-effect:none;fill:#d8b862;fill-opacity:1;stroke-linecap:square;paint-order:stroke fill markers;enable-background:accumulate;stop-color:#000000;stop-opacity:1"
         id="path147" /><path
         d="m 368.54818,284.39131 -0.0315,0.0171 -0.4625,0.85834 0.44286,0.23823 c 0.0169,0.009 0.0343,0.0183 0.0512,0.0274 0.0169,-0.009 0.0337,-0.0183 0.0507,-0.0274 l 0.44338,-0.23823 -0.46199,-0.85834 z"
         style="baseline-shift:baseline;display:inline;overflow:visible;opacity:1;vector-effect:none;fill:#d8b862;fill-opacity:1;stroke-linecap:square;paint-order:stroke fill markers;enable-background:accumulate;stop-color:#000000;stop-opacity:1"
         id="path148" /><path
         id="path149"
         style="opacity:1;fill:#d8b862;fill-opacity:1;stroke-width:1.50349;stroke-linecap:square;stroke-linejoin:round;paint-order:stroke fill markers"
         d="m 379.86625,325.64968 v -1 h 6.23848 v 1 z" /><path
         id="path150"
         style="opacity:1;fill:#d8b862;fill-opacity:1;stroke-width:1.50349;stroke-linecap:square;stroke-linejoin:round;paint-order:stroke fill markers"
         d="m 379.86625,320.84664 v -1 h 6.23848 v 1 z" /><path
         id="path151"
         style="opacity:1;fill:#d8b862;fill-opacity:1;stroke-width:1.50349;stroke-linecap:square;stroke-linejoin:round;paint-order:stroke fill markers"
         d="m 379.86625,316.0436 v -1 h 6.23848 v 1 z" /><path
         id="path152"
         style="opacity:1;fill:#d8b862;fill-opacity:1;stroke-width:1.50349;stroke-linecap:square;stroke-linejoin:round;paint-order:stroke fill markers"
         d="m 379.86625,311.24056 v -1 h 6.23848 v 1 z" /><path
         id="path153"
         style="opacity:1;fill:#d8b862;fill-opacity:1;stroke-width:1.50349;stroke-linecap:square;stroke-linejoin:round;paint-order:stroke fill markers"
         d="m 379.86625,306.43752 v -1 h 6.23848 v 1 z" /><path
         id="path154"
         style="opacity:1;fill:#d8b862;fill-opacity:1;stroke-width:1.50349;stroke-linecap:square;stroke-linejoin:round;paint-order:stroke fill markers"
         d="m 379.86625,301.63448 v -1 h 6.23848 v 1 z" /><path
         id="path155"
         style="opacity:1;fill:#d8b862;fill-opacity:1;stroke-width:1.50349;stroke-linecap:square;stroke-linejoin:round;paint-order:stroke fill markers"
         d="m 350.99122,325.64968 v -1 h 6.23848 v 1 z" /><path
         id="path156"
         style="opacity:1;fill:#d8b862;fill-opacity:1;stroke-width:1.50349;stroke-linecap:square;stroke-linejoin:round;paint-order:stroke fill markers"
         d="m 350.99122,320.84664 v -1 h 6.23848 v 1 z" /><path
         id="path157"
         style="opacity:1;fill:#d8b862;fill-opacity:1;stroke-width:1.50349;stroke-linecap:square;stroke-linejoin:round;paint-order:stroke fill markers"
         d="m 350.99122,316.0436 v -1 h 6.23848 v 1 z" /><path
         id="path158"
         style="opacity:1;fill:#d8b862;fill-opacity:1;stroke-width:1.50349;stroke-linecap:square;stroke-linejoin:round;paint-order:stroke fill markers"
         d="m 350.99122,311.24056 v -1 h 6.23848 v 1 z" /><path
         id="path159"
         style="opacity:1;fill:#d8b862;fill-opacity:1;stroke-width:1.50349;stroke-linecap:square;stroke-linejoin:round;paint-order:stroke fill markers"
         d="m 350.99122,306.43752 v -1 h 6.23848 v 1 z" /><path
         id="path160"
         style="opacity:1;fill:#d8b862;fill-opacity:1;stroke-width:1.50349;stroke-linecap:square;stroke-linejoin:round;paint-order:stroke fill markers"
         d="m 350.99122,301.63448 v -1 h 6.23848 v 1 z" /><path
         id="path161"
         style="opacity:1;fill:#d8b862;fill-opacity:1;stroke-width:1.45076;stroke-linecap:square;stroke-linejoin:round;paint-order:stroke fill markers"
         d="m 379.90821,299.27787 -0.65397,-0.75651 4.39422,-3.79867 0.65397,0.75651 z" /><path
         id="path162"
         style="opacity:1;fill:#d8b862;fill-opacity:1;stroke-width:1.45076;stroke-linecap:square;stroke-linejoin:round;paint-order:stroke fill markers"
         d="m 374.10966,293.83559 3.917,-3.60196 0.79351,0.62884 -3.84674,3.53734 z" /><path
         id="path163"
         style="opacity:1;fill:#d8b862;fill-opacity:1;stroke-width:1.45076;stroke-linecap:square;stroke-linejoin:round;paint-order:stroke fill markers"
         d="m 368.54818,290.01268 3.5172,-3.23432 1.19331,0.2612 -3.84674,3.53734 z" /><path
         id="path164"
         style="opacity:1;fill:#d8b862;fill-opacity:1;stroke-width:1.45076;stroke-linecap:square;stroke-linejoin:round;paint-order:stroke fill markers"
         d="m 357.18815,299.27787 0.65397,-0.75651 -4.39422,-3.79867 -0.65397,0.75651 z" /><path
         id="path165"
         style="opacity:1;fill:#d8b862;fill-opacity:1;stroke-width:1.45076;stroke-linecap:square;stroke-linejoin:round;paint-order:stroke fill markers"
         d="m 362.9867,293.83559 -3.917,-3.60196 -0.79351,0.62884 3.84674,3.53734 z" /><path
         id="path166"
         style="opacity:1;fill:#d8b862;fill-opacity:1;stroke-width:1.45076;stroke-linecap:square;stroke-linejoin:round;paint-order:stroke fill markers"
         d="m 368.54818,290.01268 -3.55648,-3.27044 -1.15403,0.29732 3.84674,3.53734 z" /><g
         id="g169"
         transform="translate(78.764237,55.297916)"
         style="fill:#d8b862;fill-opacity:1"><path
           id="path167"
           style="fill:#d8b862;fill-opacity:1;stroke-width:1.57873;stroke-linecap:square;stroke-linejoin:round;paint-order:stroke fill markers"
           d="m 280.55248,254.38821 v -1 h 5.66238 v 1 z" /><path
           id="path168"
           style="baseline-shift:baseline;display:inline;overflow:visible;opacity:1;vector-effect:none;fill:#d8b862;fill-opacity:1;stroke-linecap:square;paint-order:stroke fill markers;enable-background:accumulate;stop-color:#000000;stop-opacity:1"
           d="m 283.43014,250.21062 v 0.71056 c 0.68536,2.4e-4 1.23403,0.54913 1.23403,1.23455 0,0.68542 -0.54867,1.23224 -1.23403,1.23248 v 0.71107 c 1.06944,-2.5e-4 1.9451,-0.87405 1.9451,-1.94355 0,-1.06951 -0.87566,-1.94486 -1.9451,-1.94511 z" /><path
           id="path169"
           style="baseline-shift:baseline;display:inline;overflow:visible;opacity:1;vector-effect:none;fill:#d8b862;fill-opacity:1;stroke-linecap:square;paint-order:stroke fill markers;enable-background:accumulate;stop-color:#000000;stop-opacity:1"
           d="m 283.43014,253.67765 v 0.71056 c 0.68536,2.4e-4 1.23403,0.54913 1.23403,1.23455 0,0.68542 -0.54867,1.23224 -1.23403,1.23248 v 0.71107 c 1.06944,-2.5e-4 1.9451,-0.87405 1.9451,-1.94355 0,-1.06951 -0.87566,-1.94486 -1.9451,-1.94511 z" /></g><g
         id="g172"
         transform="translate(78.764237,68.091937)"
         style="fill:#d8b862;fill-opacity:1"><path
           id="path170"
           style="fill:#d8b862;fill-opacity:1;stroke-width:1.57873;stroke-linecap:square;stroke-linejoin:round;paint-order:stroke fill markers"
           d="m 280.55248,254.38821 v -1 h 5.66238 v 1 z" /><path
           id="path171"
           style="baseline-shift:baseline;display:inline;overflow:visible;opacity:1;vector-effect:none;fill:#d8b862;fill-opacity:1;stroke-linecap:square;paint-order:stroke fill markers;enable-background:accumulate;stop-color:#000000;stop-opacity:1"
           d="m 283.43014,250.21062 v 0.71056 c 0.68536,2.4e-4 1.23403,0.54913 1.23403,1.23455 0,0.68542 -0.54867,1.23224 -1.23403,1.23248 v 0.71107 c 1.06944,-2.5e-4 1.9451,-0.87405 1.9451,-1.94355 0,-1.06951 -0.87566,-1.94486 -1.9451,-1.94511 z" /><path
           id="path172"
           style="baseline-shift:baseline;display:inline;overflow:visible;opacity:1;vector-effect:none;fill:#d8b862;fill-opacity:1;stroke-linecap:square;paint-order:stroke fill markers;enable-background:accumulate;stop-color:#000000;stop-opacity:1"
           d="m 283.43014,253.67765 v 0.71056 c 0.68536,2.4e-4 1.23403,0.54913 1.23403,1.23455 0,0.68542 -0.54867,1.23224 -1.23403,1.23248 v 0.71107 c 1.06944,-2.5e-4 1.9451,-0.87405 1.9451,-1.94355 0,-1.06951 -0.87566,-1.94486 -1.9451,-1.94511 z" /></g><g
         id="g175"
         transform="matrix(-1,0,0,1,658.3317,55.297916)"
         style="fill:#d8b862;fill-opacity:1"><path
           id="path173"
           style="fill:#d8b862;fill-opacity:1;stroke-width:1.57873;stroke-linecap:square;stroke-linejoin:round;paint-order:stroke fill markers"
           d="m 280.55248,254.38821 v -1 h 5.66238 v 1 z" /><path
           id="path174"
           style="baseline-shift:baseline;display:inline;overflow:visible;opacity:1;vector-effect:none;fill:#d8b862;fill-opacity:1;stroke-linecap:square;paint-order:stroke fill markers;enable-background:accumulate;stop-color:#000000;stop-opacity:1"
           d="m 283.43014,250.21062 v 0.71056 c 0.68536,2.4e-4 1.23403,0.54913 1.23403,1.23455 0,0.68542 -0.54867,1.23224 -1.23403,1.23248 v 0.71107 c 1.06944,-2.5e-4 1.9451,-0.87405 1.9451,-1.94355 0,-1.06951 -0.87566,-1.94486 -1.9451,-1.94511 z" /><path
           id="path175"
           style="baseline-shift:baseline;display:inline;overflow:visible;opacity:1;vector-effect:none;fill:#d8b862;fill-opacity:1;stroke-linecap:square;paint-order:stroke fill markers;enable-background:accumulate;stop-color:#000000;stop-opacity:1"
           d="m 283.43014,253.67765 v 0.71056 c 0.68536,2.4e-4 1.23403,0.54913 1.23403,1.23455 0,0.68542 -0.54867,1.23224 -1.23403,1.23248 v 0.71107 c 1.06944,-2.5e-4 1.9451,-0.87405 1.9451,-1.94355 0,-1.06951 -0.87566,-1.94486 -1.9451,-1.94511 z" /></g><g
         id="g178"
         transform="matrix(-1,0,0,1,658.3317,68.091937)"
         style="fill:#d8b862;fill-opacity:1"><path
           id="path176"
           style="fill:#d8b862;fill-opacity:1;stroke-width:1.57873;stroke-linecap:square;stroke-linejoin:round;paint-order:stroke fill markers"
           d="m 280.55248,254.38821 v -1 h 5.66238 v 1 z" /><path
           id="path177"
           style="baseline-shift:baseline;display:inline;overflow:visible;opacity:1;vector-effect:none;fill:#d8b862;fill-opacity:1;stroke-linecap:square;paint-order:stroke fill markers;enable-background:accumulate;stop-color:#000000;stop-opacity:1"
           d="m 283.43014,250.21062 v 0.71056 c 0.68536,2.4e-4 1.23403,0.54913 1.23403,1.23455 0,0.68542 -0.54867,1.23224 -1.23403,1.23248 v 0.71107 c 1.06944,-2.5e-4 1.9451,-0.87405 1.9451,-1.94355 0,-1.06951 -0.87566,-1.94486 -1.9451,-1.94511 z" /><path
           id="path178"
           style="baseline-shift:baseline;display:inline;overflow:visible;opacity:1;vector-effect:none;fill:#d8b862;fill-opacity:1;stroke-linecap:square;paint-order:stroke fill markers;enable-background:accumulate;stop-color:#000000;stop-opacity:1"
           d="m 283.43014,253.67765 v 0.71056 c 0.68536,2.4e-4 1.23403,0.54913 1.23403,1.23455 0,0.68542 -0.54867,1.23224 -1.23403,1.23248 v 0.71107 c 1.06944,-2.5e-4 1.9451,-0.87405 1.9451,-1.94355 0,-1.06951 -0.87566,-1.94486 -1.9451,-1.94511 z" /></g></g></g></svg>
