<?xml version="1.0" encoding="UTF-8" standalone="no"?>
<!-- Created with Inkscape (http://www.inkscape.org/) -->

<svg
   width="40.092644mm"
   height="45.769993mm"
   viewBox="0 0 40.092644 45.769993"
   version="1.1"
   id="svg1"
   xml:space="preserve"
   sodipodi:docname="puerta-1.svg"
   inkscape:version="1.4.2 (f4327f4, 2025-05-13)"
   xmlns:inkscape="http://www.inkscape.org/namespaces/inkscape"
   xmlns:sodipodi="http://sodipodi.sourceforge.net/DTD/sodipodi-0.dtd"
   xmlns="http://www.w3.org/2000/svg"
   xmlns:svg="http://www.w3.org/2000/svg"><sodipodi:namedview
     id="namedview1"
     pagecolor="#ffffff"
     bordercolor="#000000"
     borderopacity="0.25"
     inkscape:showpageshadow="2"
     inkscape:pageopacity="0.0"
     inkscape:pagecheckerboard="0"
     inkscape:deskcolor="#d1d1d1"
     inkscape:document-units="mm"
     inkscape:zoom="3.9655712"
     inkscape:cx="75.777229"
     inkscape:cy="86.494475"
     inkscape:window-width="1500"
     inkscape:window-height="930"
     inkscape:window-x="-6"
     inkscape:window-y="-6"
     inkscape:window-maximized="1"
     inkscape:current-layer="svg1" /><defs
     id="defs1" /><g
     id="layer1"
     transform="translate(-151.48772,-292.24569)"
     style="fill:#d8b862;fill-opacity:1"><g
       id="g319"
       style="fill:#d8b862;fill-opacity:1"><path
         id="path272"
         style="baseline-shift:baseline;display:inline;overflow:visible;vector-effect:none;fill:#d8b862;fill-opacity:1;stroke-linecap:square;paint-order:stroke fill markers;enable-background:accumulate;stop-color:#000000"
         d="m 171.53455,292.2457 c -8.23709,0 -14.93041,6.6485 -15.12982,14.90296 h 0.99218 c 0.19646,-7.71662 6.44723,-13.89682 14.13764,-13.89682 7.69043,0 13.94171,6.1802 14.13816,13.89682 h 1.00614 c -0.19743,-8.25624 -6.90592,-14.90296 -15.1443,-14.90296 z" /><path
         style="baseline-shift:baseline;display:inline;overflow:visible;vector-effect:none;fill:#d8b862;fill-opacity:1;stroke-linecap:square;paint-order:stroke fill markers;enable-background:accumulate;stop-color:#000000"
         d="m 151.48772,334.31686 v 3.69882 h 40.09264 v -3.69882 z m 1,1 h 38.09264 v 1.69882 h -38.09264 z"
         id="path273" /><path
         style="baseline-shift:baseline;display:inline;overflow:visible;vector-effect:none;fill:#d8b862;fill-opacity:1;stroke-linecap:square;paint-order:stroke fill markers;enable-background:accumulate;stop-color:#000000"
         d="m 152.48772,331.61804 v 3.69882 h 38.09264 v -3.69882 z m 1,1 h 36.09264 v 1.69882 h -36.09264 z"
         id="path274" /><path
         style="baseline-shift:baseline;display:inline;overflow:visible;vector-effect:none;fill:#d8b862;fill-opacity:1;stroke-linecap:square;paint-order:stroke fill markers;enable-background:accumulate;stop-color:#000000"
         d="m 153.48772,328.91922 v 3.69882 h 36.09264 v -3.69882 z m 1,1 h 34.09264 v 1.69882 h -34.09264 z"
         id="path275" /><path
         id="path276"
         style="fill:#d8b862;fill-opacity:1;stroke-width:2.80977;stroke-linecap:square;stroke-linejoin:round;paint-order:stroke fill markers"
         d="m 160.76751,308.13096 h -1 v 21.78826 h 1 z" /><path
         id="path277"
         style="fill:#d8b862;fill-opacity:1;stroke-width:2.80977;stroke-linecap:square;stroke-linejoin:round;paint-order:stroke fill markers"
         d="m 157.39691,307.14866 h -0.99218 l -0.005,22.77056 h 1 z" /><path
         id="path278"
         style="fill:#d8b862;fill-opacity:1;stroke-width:3.51667;stroke-linecap:square;stroke-linejoin:round;paint-order:stroke fill markers"
         d="m 172.03404,295.78863 h -1 v 34.13059 h 1 z" /><path
         id="path279"
         style="fill:#d8b862;fill-opacity:1;stroke-width:2.80977;stroke-linecap:square;stroke-linejoin:round;paint-order:stroke fill markers"
         d="m 182.30057,308.13096 h 1 v 21.78826 h -1 z" /><path
         id="path280"
         style="fill:#d8b862;fill-opacity:1;stroke-width:2.80977;stroke-linecap:square;stroke-linejoin:round;paint-order:stroke fill markers"
         d="m 185.67271,307.14866 h 1.00614 l -0.0107,22.77056 h -1 z" /><path
         id="path281"
         style="fill:#d8b862;fill-opacity:1;stroke-width:2.92011;stroke-linecap:square;stroke-linejoin:round;paint-order:stroke fill markers"
         d="m 159.76751,309.13096 v -1 h 23.53306 v 1 z" /><path
         id="path282"
         style="baseline-shift:baseline;display:inline;overflow:visible;vector-effect:none;fill:#d8b862;fill-opacity:1;stroke-linecap:square;paint-order:stroke fill markers;enable-background:accumulate;stop-color:#000000"
         d="m 171.53404,295.11374 c -6.48806,0 -11.75949,5.25584 -11.75949,11.72848 v 5.2e-4 h 1.00562 v -5.2e-4 c 0,-5.92779 4.81427,-10.72286 10.76043,-10.72286 5.94617,0 10.76091,4.79507 10.76091,10.72286 0.007,0 0.67425,0.0244 0.99906,5.2e-4 v -4.8e-4 c 0,-6.47264 -5.27195,-11.72852 -11.76001,-11.72852 z" /><path
         id="path283"
         style="fill:#d8b862;fill-opacity:1;stroke-width:0.683332;stroke-linecap:square;stroke-linejoin:round;paint-order:stroke fill markers"
         d="m 160.78017,306.84226 -1.00562,-4e-5 -0.007,1.28874 h 1 z" /><path
         id="path284"
         style="fill:#d8b862;fill-opacity:1;stroke-width:0.683332;stroke-linecap:square;stroke-linejoin:round;paint-order:stroke fill markers"
         d="m 183.30057,306.84226 -1.00562,-4e-5 -0.007,1.28874 h 1 z" /><path
         id="path285"
         style="fill:#d8b862;fill-opacity:1;stroke-width:2.0244;stroke-linecap:square;stroke-linejoin:round;paint-order:stroke fill markers"
         d="m 180.12557,298.97601 h -1 v 9.84269 h 1 z" /><path
         id="path286"
         style="fill:#d8b862;fill-opacity:1;stroke-width:2.0244;stroke-linecap:square;stroke-linejoin:round;paint-order:stroke fill markers"
         d="m 176.09067,296.49554 h -1 v 12.32316 h 1 z" /><path
         id="path287"
         style="fill:#d8b862;fill-opacity:1;stroke-width:2.0244;stroke-linecap:square;stroke-linejoin:round;paint-order:stroke fill markers"
         d="m 162.94251,298.97601 h 1 v 9.84269 h -1 z" /><path
         id="path288"
         style="fill:#d8b862;fill-opacity:1;stroke-width:2.0244;stroke-linecap:square;stroke-linejoin:round;paint-order:stroke fill markers"
         d="m 166.97741,296.49554 h 1 v 12.32316 h -1 z" /><path
         id="path289"
         style="fill:#d8b862;fill-opacity:1;stroke-width:1.21933;stroke-linecap:square;stroke-linejoin:round;paint-order:stroke fill markers"
         d="m 156.66431,326.71847 v -1 h 4.1032 v 1 z" /><path
         id="path290"
         style="fill:#d8b862;fill-opacity:1;stroke-width:1.21933;stroke-linecap:square;stroke-linejoin:round;paint-order:stroke fill markers"
         d="m 156.66431,321.91543 v -1 h 4.1032 v 1 z" /><path
         id="path291"
         style="fill:#d8b862;fill-opacity:1;stroke-width:1.21933;stroke-linecap:square;stroke-linejoin:round;paint-order:stroke fill markers"
         d="m 156.66431,317.11239 v -1 h 4.1032 v 1 z" /><path
         id="path292"
         style="fill:#d8b862;fill-opacity:1;stroke-width:1.21933;stroke-linecap:square;stroke-linejoin:round;paint-order:stroke fill markers"
         d="m 156.66431,312.30935 v -1 h 4.1032 v 1 z" /><path
         id="path294"
         style="fill:#d8b862;fill-opacity:1;stroke-width:1.21933;stroke-linecap:square;stroke-linejoin:round;paint-order:stroke fill markers"
         d="m 186.61051,326.71847 v -1 h -4.1032 v 1 z" /><path
         id="path295"
         style="fill:#d8b862;fill-opacity:1;stroke-width:1.21933;stroke-linecap:square;stroke-linejoin:round;paint-order:stroke fill markers"
         d="m 186.61051,321.91543 v -1 h -4.1032 v 1 z" /><path
         id="path296"
         style="fill:#d8b862;fill-opacity:1;stroke-width:1.21933;stroke-linecap:square;stroke-linejoin:round;paint-order:stroke fill markers"
         d="m 186.61051,317.11239 v -1 h -4.1032 v 1 z" /><path
         id="path297"
         style="fill:#d8b862;fill-opacity:1;stroke-width:1.21933;stroke-linecap:square;stroke-linejoin:round;paint-order:stroke fill markers"
         d="m 186.61051,312.30935 v -1 h -4.1032 v 1 z" /><path
         id="path300"
         style="fill:#d8b862;fill-opacity:1;stroke-width:1.45076;stroke-linecap:square;stroke-linejoin:round;paint-order:stroke fill markers"
         d="m 180.20111,299.78353 2.60722,-1.8793 0.6421,0.76988 -2.7105,1.95375 z" /><path
         id="path301"
         style="fill:#d8b862;fill-opacity:1;stroke-width:1.45076;stroke-linecap:square;stroke-linejoin:round;paint-order:stroke fill markers"
         d="m 177.02973,297.10916 1.65283,-2.75636 0.894,0.45363 -1.7183,2.86555 z" /><path
         id="path302"
         style="fill:#d8b862;fill-opacity:1;stroke-width:1.45076;stroke-linecap:square;stroke-linejoin:round;paint-order:stroke fill markers"
         d="m 172.55795,295.85853 1.05033,-3.03746 0.96822,0.25997 -1.09195,3.15778 z" /><path
         id="path305"
         style="fill:#d8b862;fill-opacity:1;stroke-width:1.45076;stroke-linecap:square;stroke-linejoin:round;paint-order:stroke fill markers"
         d="m 163.07371,299.78353 -2.60722,-1.8793 -0.6421,0.76988 2.7105,1.95375 z" /><path
         id="path306"
         style="fill:#d8b862;fill-opacity:1;stroke-width:1.45076;stroke-linecap:square;stroke-linejoin:round;paint-order:stroke fill markers"
         d="m 166.24509,297.10916 -1.65283,-2.75636 -0.894,0.45363 1.7183,2.86555 z" /><path
         id="path307"
         style="fill:#d8b862;fill-opacity:1;stroke-width:1.45076;stroke-linecap:square;stroke-linejoin:round;paint-order:stroke fill markers"
         d="m 170.71687,295.85853 -1.05033,-3.03746 -0.96822,0.25997 1.09195,3.15778 z" /><path
         id="path309"
         style="fill:#d8b862;fill-opacity:1;stroke-width:1.21933;stroke-linecap:square;stroke-linejoin:round;paint-order:stroke fill markers"
         d="m 156.60906,305.79227 0.17075,-0.98531 4.04295,0.70061 -0.17075,0.98531 z" /><path
         id="path310"
         style="fill:#d8b862;fill-opacity:1;stroke-width:1.21933;stroke-linecap:square;stroke-linejoin:round;paint-order:stroke fill markers"
         d="m 186.61051,312.30935 v -1 h -4.1032 v 1 z" /><path
         id="path311"
         style="fill:#d8b862;fill-opacity:1;stroke-width:1.21933;stroke-linecap:square;stroke-linejoin:round;paint-order:stroke fill markers"
         d="m 185.89172,304.9115 -3.43966,0.59607 0.17075,0.98531 3.43183,-0.59471 z" /><g
         id="g313"
         transform="translate(-216.12058,5.3480801)"
         style="fill:#d8b862;fill-opacity:1"><path
           id="path312"
           style="opacity:1;fill:#d8b862;fill-opacity:1;stroke-width:0.88302;stroke-linecap:square;stroke-linejoin:round;paint-order:stroke fill markers"
           d="m 392.78788,313.91621 h 1 v -2.1519 h -1 z" /><path
           style="baseline-shift:baseline;display:inline;overflow:visible;opacity:1;vector-effect:none;fill:#d8b862;fill-opacity:1;stroke-linecap:square;paint-order:stroke fill markers;enable-background:accumulate;stop-color:#000000;stop-opacity:1"
           d="m 393.28711,312.41016 c -1.25028,0 -2.28125,1.01042 -2.28125,2.2539 0,1.24348 1.03097,2.25586 2.28125,2.25586 1.25028,0 2.2832,-1.01238 2.2832,-2.25586 0,-1.24348 -1.03292,-2.2539 -2.2832,-2.2539 z m 0,1.00586 c 0.71541,0 1.27734,0.55656 1.27734,1.24804 0,0.69148 -0.56193,1.25 -1.27734,1.25 -0.71541,0 -1.27539,-0.55852 -1.27539,-1.25 0,-0.69148 0.55998,-1.24804 1.27539,-1.24804 z"
           id="path313" /></g><g
         id="g315"
         style="fill:#d8b862;fill-opacity:1"><path
           id="path314"
           style="fill:#d8b862;fill-opacity:1;stroke-width:0.88302;stroke-linecap:square;stroke-linejoin:round;paint-order:stroke fill markers"
           d="m 165.40079,319.26429 h 1 v -2.1519 h -1 z" /><path
           style="baseline-shift:baseline;display:inline;overflow:visible;vector-effect:none;fill:#d8b862;fill-opacity:1;stroke-linecap:square;paint-order:stroke fill markers;enable-background:accumulate;stop-color:#000000"
           d="m 165.9014,317.75824 c -1.25028,0 -2.2832,1.01042 -2.2832,2.2539 0,1.24348 1.03292,2.25586 2.2832,2.25586 1.25028,0 2.28125,-1.01238 2.28125,-2.25586 0,-1.24348 -1.03097,-2.2539 -2.28125,-2.2539 z m 0,1.00586 c 0.71541,0 1.27539,0.55656 1.27539,1.24804 0,0.69148 -0.55998,1.25 -1.27539,1.25 -0.71541,0 -1.27734,-0.55852 -1.27735,-1.25 0,-0.69148 0.56194,-1.24804 1.27735,-1.24804 z"
           id="ellipse314" /></g><path
         id="path316"
         style="fill:#d8b862;fill-opacity:1;stroke-width:1.56967;stroke-linecap:square;stroke-linejoin:round;paint-order:stroke fill markers"
         d="m 162.50048,326.71847 v -1 h 6.79988 v 1 z" /><path
         id="path317"
         style="fill:#d8b862;fill-opacity:1;stroke-width:1.56967;stroke-linecap:square;stroke-linejoin:round;paint-order:stroke fill markers"
         d="m 173.76756,326.71847 v -1 h 6.79988 v 1 z" /><path
         id="path318"
         style="fill:#d8b862;fill-opacity:1;stroke-width:1.56967;stroke-linecap:square;stroke-linejoin:round;paint-order:stroke fill markers"
         d="m 162.50048,312.30935 v -1 h 6.79988 v 1 z" /><path
         id="path319"
         style="fill:#d8b862;fill-opacity:1;stroke-width:1.56967;stroke-linecap:square;stroke-linejoin:round;paint-order:stroke fill markers"
         d="m 173.76756,312.30935 v -1 h 6.79988 v 1 z" /></g></g></svg>
